<svg height="100%" width="100%" id="bg-svg" viewBox="0 0 1440 500" xmlns="http://www.w3.org/2000/svg" class="transition duration-300 ease-in-out delay-150"><path d="M 0,500 C 0,500 0,166 0,166 C 78.68899521531102,134.72727272727272 157.37799043062205,103.45454545454545 261,113 C 364.62200956937795,122.54545454545455 493.17703349282294,172.90909090909093 603,201 C 712.8229665071771,229.09090909090907 803.9138755980862,234.90909090909088 885,217 C 966.0861244019138,199.09090909090912 1037.1674641148325,157.45454545454544 1128,145 C 1218.8325358851675,132.54545454545456 1329.4162679425838,149.27272727272728 1440,166 C 1440,166 1440,500 1440,500 Z" stroke="none" stroke-width="0" fill="#fcb90088" class="transition-all duration-300 ease-in-out delay-150"></path><path d="M 0,500 C 0,500 0,333 0,333 C 106.68899521531102,347.46889952153106 213.37799043062205,361.93779904306217 319,356 C 424.62200956937795,350.06220095693783 529.1770334928229,323.7177033492823 603,307 C 676.8229665071771,290.2822966507177 719.9138755980861,283.1913875598086 822,284 C 924.0861244019139,284.8086124401914 1085.1674641148327,293.51674641148327 1198,303 C 1310.8325358851673,312.48325358851673 1375.4162679425835,322.74162679425837 1440,333 C 1440,333 1440,500 1440,500 Z" stroke="none" stroke-width="0" fill="#fcb900ff" class="transition-all duration-300 ease-in-out delay-150"></path></svg>